# xmcd
#
# Track frame offsets: 
#        150
#        20229
#        45976
#        71851
#        94248
#        113270
#        133273
#        153326
#        172407
#        188723
#        203803
#        221700
#
# Disc length: 3259 seconds
#
# Revision: 2
# Processed by: cddbd v1.5.2PL0 Copyright (c) Steve Scherf et al.
# Submitted via: ExactAudioCopy v0.99pb5
#
DISCID=b10cb90c
DTITLE=Tinariwen - Aman Iman - L`eau C`est La Vie
DYEAR=2006
DGENRE=
TTITLE0=Cler Achel
TTITLE1=Mano Dayak
TTITLE2=Matadjem Yinmixan
TTITLE3=Ahimana
TTITLE4=Soixante Trois
TTITLE5=Toumast
TTITLE6=Imidiwan Winakalin
TTITLE7=Awa Didjen
TTITLE8=Ikyadarh Dim
TTITLE9=Tamatant Tilay
TTITLE10=Assouf
TTITLE11=Izarharh Ténéré
EXTD=YEAR: 07
EXTT0=
EXTT1=
EXTT2=
EXTT3=
EXTT4=
EXTT5=
EXTT6=
EXTT7=
EXTT8=
EXTT9=
EXTT10=
EXTT11=
PLAYORDER=
